<?xml version="1.0" encoding="iso-8859-1"?>
<!-- Generator: Adobe Illustrator 19.0.0, SVG Export Plug-In . SVG Version: 6.00 Build 0)  -->
<svg version="1.1" id="Capa_1" xmlns="http://www.w3.org/2000/svg" xmlns:xlink="http://www.w3.org/1999/xlink" x="0px" y="0px"
	 viewBox="0 0 424.819 424.819" style="enable-background:new 0 0 424.819 424.819;" xml:space="preserve">
<g>
	<g>
		<path d="M359.214,88.832c-0.153-0.009-0.307-0.013-0.461-0.013h-29.28l4.8-43.2l36.608-21.968l-8.24-13.712l-40,24
			c-2.14,1.285-3.557,3.495-3.832,5.976l-5.44,48.904h-79.304l16.568-16.568l22.624-22.632c3.123-3.124,3.123-8.188,0-11.312
			c-49.536-50.434-130.578-51.162-181.012-1.626c-50.434,49.536-51.162,130.578-1.626,181.012c0.539,0.548,1.082,1.092,1.63,1.63
			c1.496,1.506,3.533,2.35,5.656,2.344c2.122,0,4.156-0.844,5.656-2.344l22.624-22.624l20.944-20.944l11.624,209.232v31.832
			c0,4.418,3.582,8,8,8h176c4.418,0,8-3.582,8-8v-31.832l16-287.72C367.001,92.856,363.625,89.079,359.214,88.832z M98.097,202.155
			C57.595,155.404,62.661,84.67,109.412,44.168c20.362-17.64,46.4-27.35,73.341-27.349c26.954-0.076,53.018,9.642,73.344,27.344
			l-11.352,11.344c-0.2-0.168-0.416-0.312-0.624-0.48c-0.896-0.752-1.832-1.424-2.76-2.136c-1.456-1.136-2.92-2.256-4.432-3.296
			c-1.016-0.696-2.056-1.336-3.096-1.992c-1.488-0.944-2.992-1.864-4.528-2.712c-1.088-0.608-2.192-1.176-3.296-1.736
			c-1.6-0.8-3.128-1.536-4.72-2.232c-1.144-0.504-2.28-0.984-3.44-1.44c-1.6-0.64-3.28-1.216-4.952-1.768
			c-1.16-0.384-2.312-0.8-3.488-1.104c-1.744-0.504-3.512-0.92-5.296-1.328c-1.128-0.256-2.248-0.536-3.392-0.752
			c-1.976-0.376-4-0.632-5.976-0.888c-0.976-0.12-1.936-0.288-2.92-0.384c-3-0.28-6.024-0.44-9.072-0.44
			c-52.996,0.057-95.943,43.004-96,96c0,3.048,0.16,6.072,0.44,9.072c0.096,0.984,0.264,1.944,0.384,2.92
			c0.256,2.008,0.512,4,0.888,5.984c0.216,1.136,0.496,2.24,0.744,3.368c0.408,1.792,0.8,3.576,1.336,5.336
			c0.336,1.152,0.712,2.288,1.088,3.432c0.56,1.696,1.152,3.368,1.8,5.024c0.448,1.128,0.912,2.248,1.4,3.36
			c0.72,1.6,1.48,3.2,2.288,4.8c0.533,1.067,1.088,2.133,1.664,3.2c0.896,1.6,1.848,3.2,2.832,4.72
			c0.616,0.968,1.216,1.952,1.864,2.896c1.112,1.6,2.312,3.2,3.528,4.744c0.632,0.8,1.232,1.648,1.896,2.448
			c0.184,0.224,0.344,0.472,0.536,0.696L98.097,202.155z M233.385,66.875l-21.944,21.944h-20.688V49.251
			c0.632,0.064,1.256,0.168,1.88,0.24c1.664,0.208,3.32,0.424,4.952,0.736c0.944,0.176,1.864,0.392,2.792,0.6
			c1.48,0.336,2.952,0.688,4.4,1.104c0.96,0.272,1.904,0.568,2.84,0.88c1.408,0.453,2.803,0.949,4.184,1.488
			c0.92,0.36,1.832,0.728,2.744,1.12c1.384,0.6,2.752,1.264,4.104,1.944c0.84,0.424,1.68,0.8,2.504,1.28
			c1.472,0.8,2.896,1.688,4.312,2.584c0.664,0.424,1.336,0.8,1.984,1.24C229.481,63.843,231.449,65.299,233.385,66.875z
			 M120.849,78.227l22.088,22.088l1.144,20.504h-40.92C104.723,105.187,110.877,90.367,120.849,78.227z M120.809,179.451l-0.2-0.264
			c-1.477-1.824-2.869-3.691-4.176-5.6c-0.488-0.712-0.912-1.456-1.376-2.192c-0.848-1.344-1.696-2.704-2.456-4.096
			c-0.48-0.864-0.904-1.752-1.344-2.632c-0.664-1.312-1.304-2.64-1.888-4c-0.408-0.928-0.8-1.872-1.144-2.808
			c-0.528-1.36-1.016-2.728-1.472-4.12c-0.312-0.952-0.616-1.912-0.896-2.88c-0.408-1.448-0.8-2.904-1.088-4.376
			c-0.208-0.928-0.432-1.864-0.608-2.808c-0.304-1.6-0.528-3.28-0.736-4.936c-0.072-0.632-0.176-1.264-0.24-1.896h41.784
			l0.968,17.504L120.809,179.451z M154.065,88.819l-21.904-21.904c12.14-9.972,26.96-16.126,42.592-17.688v39.592H154.065z
			 M159.209,104.819h152.344l-8,71.696c-15.72,2.938-31.879-2.056-43.2-13.352c-25.232-25.175-66.08-25.175-91.312,0l-6.296,6.296
			L159.209,104.819z M334.753,408.819h-160v-16h160V408.819z M335.185,376.819H174.321l-10.328-185.928l16.416-16.416
			c18.984-18.929,49.704-18.929,68.688,0c25.232,25.175,66.08,25.175,91.312,0l6.4-6.4L335.185,376.819z M348.113,144.147
			l-19.016,19.016c-2.614,2.571-5.513,4.837-8.64,6.752l7.232-65.096h22.608L348.113,144.147z"/>
	</g>
</g>
<g>
	<g>
		<rect x="198.753" y="200.819" width="16" height="16"/>
	</g>
</g>
<g>
	<g>
		<rect x="246.753" y="264.819" width="16" height="16"/>
	</g>
</g>
<g>
	<g>
		<rect x="294.753" y="328.819" width="16" height="16"/>
	</g>
</g>
<g>
	<g>
		<rect x="302.753" y="224.819" width="16" height="16"/>
	</g>
</g>
<g>
	<g>
		<rect x="206.753" y="320.819" width="16" height="16"/>
	</g>
</g>
<g>
</g>
<g>
</g>
<g>
</g>
<g>
</g>
<g>
</g>
<g>
</g>
<g>
</g>
<g>
</g>
<g>
</g>
<g>
</g>
<g>
</g>
<g>
</g>
<g>
</g>
<g>
</g>
<g>
</g>
</svg>
